<svg width="41" height="39" viewBox="0 0 41 39" fill="none" xmlns="http://www.w3.org/2000/svg">
<path d="M22.8588 37.9632L22.835 37.9668L22.6818 38.0293L22.6387 38.0364L22.6085 38.0293L22.4553 37.9668C22.4322 37.9608 22.415 37.9638 22.4035 37.9757L22.3948 37.9936L22.3582 38.7581L22.3689 38.7938L22.3905 38.817L22.6149 38.9492L22.6473 38.9563L22.6732 38.9492L22.8976 38.817L22.9235 38.7884L22.9321 38.7581L22.8955 37.9954C22.8897 37.9763 22.8775 37.9656 22.8588 37.9632ZM23.4306 37.7614L23.4026 37.7649L23.0034 37.9311L22.9818 37.9489L22.9753 37.9686L23.0141 38.7366L23.0249 38.7581L23.0422 38.7706L23.4759 38.9367C23.5033 38.9426 23.5241 38.9379 23.5385 38.9224L23.5471 38.8974L23.4738 37.8007C23.4666 37.7792 23.4522 37.7661 23.4306 37.7614ZM21.8877 37.7649C21.8782 37.7602 21.8669 37.7586 21.856 37.7606C21.8452 37.7626 21.8357 37.768 21.8295 37.7757L21.8165 37.8007L21.7432 38.8974C21.7446 38.9188 21.7568 38.9331 21.7798 38.9403L21.8122 38.9367L22.2459 38.7706L22.2675 38.7563L22.2762 38.7366L22.3128 37.9686L22.3064 37.9471L22.2848 37.9293L21.8877 37.7649Z" fill="#E6C7EB"/>
<path d="M10.8416 0.589161C12.4629 1.04203 14.0047 1.67026 15.4271 2.45754C17.4372 2.03166 19.5043 1.818 21.5792 1.82165C23.7219 1.82165 25.7892 2.04314 27.7269 2.45576C29.1488 1.66924 30.6899 1.04161 32.3103 0.589161C33.8143 0.165827 35.9571 -0.52008 37.2302 0.64632C38.0933 1.4394 38.3091 2.76835 38.4623 3.78292C38.635 4.91538 38.676 6.39079 38.2228 7.85549C39.9556 9.7078 41 11.9173 41 14.3252C41 17.9726 38.6134 21.1396 35.081 23.3331C33.3801 24.3743 31.4949 25.1913 29.4921 25.7552C29.9539 26.6304 30.2107 27.5985 30.2107 28.6149V33.9735C30.2107 34.4473 29.9833 34.9016 29.5786 35.2366C29.174 35.5716 28.6251 35.7598 28.0528 35.7598H15.1056C14.5333 35.7598 13.9844 35.5716 13.5797 35.2366C13.1751 34.9016 12.9477 34.4473 12.9477 33.9735V32.2034C10.8869 32.4124 9.15849 32.2266 7.68898 31.7104C6.15258 31.171 5.08228 30.335 4.27739 29.5348C3.51351 28.7774 2.68057 27.0698 1.47648 26.7376C1.20755 26.6635 0.958901 26.5462 0.744717 26.3926C0.530532 26.2389 0.35501 26.0518 0.228171 25.842C-0.0279903 25.4182 -0.0703013 24.9276 0.110546 24.478C0.291394 24.0284 0.680585 23.6568 1.1925 23.4447C1.70442 23.2327 2.29713 23.1976 2.84025 23.3473C4.27739 23.7439 5.21391 24.6013 5.85479 25.2908C6.89057 26.3982 7.73214 27.845 9.37212 28.422C10.0475 28.6596 11.038 28.815 12.5873 28.6399L12.9477 28.5792C12.9527 27.6072 13.1972 26.6462 13.6663 25.7552C11.6635 25.1913 9.77822 24.3743 8.0774 23.3331C4.54497 21.1396 2.15836 17.9744 2.15836 14.3252C2.15836 11.9209 3.20061 9.71316 4.92907 7.86264C4.47591 6.39794 4.51476 4.91895 4.68739 3.7847L4.69818 3.71683C4.8557 2.67725 5.03912 1.45369 5.91953 0.64632C7.19267 -0.52008 9.33759 0.167614 10.8395 0.590947L10.8416 0.589161Z" fill="#E6C7EB"/>
</svg>
