<svg width="48" height="39" viewBox="0 0 48 39" fill="none" xmlns="http://www.w3.org/2000/svg">
<path fill-rule="evenodd" clip-rule="evenodd" d="M11.2988 0.550309C19.5082 -0.183436 27.7667 -0.183436 35.9762 0.550309L39.5182 0.867642C41.2329 1.02075 42.8458 1.74749 44.0965 2.93044C45.3472 4.11339 46.1626 5.68346 46.4108 7.38698C47.563 15.2785 47.563 23.2955 46.4108 31.187C46.1621 32.8901 45.3465 34.4596 44.0959 35.6421C42.8452 36.8246 41.2325 37.551 39.5182 37.704L35.9762 38.0213C27.7667 38.755 19.5082 38.755 11.2988 38.0213L7.75683 37.704C6.04248 37.551 4.42975 36.8246 3.1791 35.6421C1.92845 34.4596 1.1129 32.8901 0.864165 31.187C-0.288055 23.2955 -0.288055 15.2785 0.864165 7.38698C1.11242 5.68346 1.92776 4.11339 3.17845 2.93044C4.42915 1.74749 6.04214 1.02075 7.75683 0.867642L11.2988 0.550309ZM9.3015 7.24698C9.03493 7.10322 8.73562 7.0311 8.43283 7.03768C8.13004 7.04425 7.83414 7.1293 7.57406 7.2845C7.31399 7.4397 7.09864 7.65973 6.94909 7.92309C6.79953 8.18645 6.72088 8.48411 6.72083 8.78697V30.9536C6.72083 31.4178 6.90521 31.8629 7.23339 32.1911C7.56158 32.5193 8.0067 32.7036 8.47083 32.7036C8.93496 32.7036 9.38008 32.5193 9.70827 32.1911C10.0365 31.8629 10.2208 31.4178 10.2208 30.9536V11.7176L22.8068 18.4936C23.3248 18.7736 23.9502 18.7736 24.4682 18.4936L37.0542 11.7176V30.9536C37.0542 31.4178 37.2385 31.8629 37.5667 32.1911C37.8949 32.5193 38.34 32.7036 38.8042 32.7036C39.2683 32.7036 39.7134 32.5193 40.0416 32.1911C40.3698 31.8629 40.5542 31.4178 40.5542 30.9536V8.78697C40.5541 8.48411 40.4755 8.18645 40.3259 7.92309C40.1763 7.65973 39.961 7.4397 39.7009 7.2845C39.4409 7.1293 39.145 7.04425 38.8422 7.03768C38.5394 7.0311 38.2401 7.10322 37.9735 7.24698L23.6375 14.9656L9.3015 7.24698Z" fill="#FE602F"/>
</svg>
