<svg width="43" height="43" viewBox="0 0 43 43" fill="none" xmlns="http://www.w3.org/2000/svg">
<path opacity="0.2" d="M40.625 3.25V39C40.625 39.431 40.4538 39.8443 40.149 40.149C39.8443 40.4538 39.431 40.625 39 40.625H3.25C2.81902 40.625 2.4057 40.4538 2.10095 40.149C1.79621 39.8443 1.625 39.431 1.625 39V3.25C1.625 2.81902 1.79621 2.4057 2.10095 2.10095C2.4057 1.79621 2.81902 1.625 3.25 1.625H39C39.431 1.625 39.8443 1.79621 40.149 2.10095C40.4538 2.4057 40.625 2.81902 40.625 3.25Z" fill="#64CEBB"/>
<path d="M39 0H3.25C2.38805 0 1.5614 0.34241 0.951903 0.951903C0.34241 1.5614 0 2.38805 0 3.25V39C0 39.862 0.34241 40.6886 0.951903 41.2981C1.5614 41.9076 2.38805 42.25 3.25 42.25H39C39.862 42.25 40.6886 41.9076 41.2981 41.2981C41.9076 40.6886 42.25 39.862 42.25 39V3.25C42.25 2.38805 41.9076 1.5614 41.2981 0.951903C40.6886 0.34241 39.862 0 39 0ZM39 39H3.25V3.25H39V39ZM14.625 17.875V30.875C14.625 31.306 14.4538 31.7193 14.149 32.024C13.8443 32.3288 13.431 32.5 13 32.5C12.569 32.5 12.1557 32.3288 11.851 32.024C11.5462 31.7193 11.375 31.306 11.375 30.875V17.875C11.375 17.444 11.5462 17.0307 11.851 16.726C12.1557 16.4212 12.569 16.25 13 16.25C13.431 16.25 13.8443 16.4212 14.149 16.726C14.4538 17.0307 14.625 17.444 14.625 17.875ZM32.5 23.5625V30.875C32.5 31.306 32.3288 31.7193 32.024 32.024C31.7193 32.3288 31.306 32.5 30.875 32.5C30.444 32.5 30.0307 32.3288 29.726 32.024C29.4212 31.7193 29.25 31.306 29.25 30.875V23.5625C29.25 22.4851 28.822 21.4517 28.0601 20.6899C27.2983 19.928 26.2649 19.5 25.1875 19.5C24.1101 19.5 23.0767 19.928 22.3149 20.6899C21.553 21.4517 21.125 22.4851 21.125 23.5625V30.875C21.125 31.306 20.9538 31.7193 20.649 32.024C20.3443 32.3288 19.931 32.5 19.5 32.5C19.069 32.5 18.6557 32.3288 18.351 32.024C18.0462 31.7193 17.875 31.306 17.875 30.875V17.875C17.877 17.477 18.0251 17.0935 18.291 16.7974C18.557 16.5013 18.9224 16.313 19.3179 16.2685C19.7135 16.2239 20.1116 16.326 20.4368 16.5555C20.7621 16.785 20.9918 17.1258 21.0823 17.5134C22.1816 16.7677 23.4633 16.3355 24.7897 16.2632C26.1161 16.191 27.4371 16.4814 28.6109 17.1032C29.7847 17.7251 30.7669 18.655 31.4521 19.793C32.1373 20.931 32.4996 22.2341 32.5 23.5625ZM15.4375 12.1875C15.4375 12.6696 15.2945 13.1409 15.0267 13.5417C14.7589 13.9425 14.3782 14.255 13.9328 14.4395C13.4874 14.6239 12.9973 14.6722 12.5245 14.5782C12.0516 14.4841 11.6173 14.252 11.2764 13.9111C10.9355 13.5702 10.7034 13.1359 10.6093 12.663C10.5153 12.1902 10.5636 11.7001 10.748 11.2547C10.9325 10.8093 11.245 10.4286 11.6458 10.1608C12.0466 9.89296 12.5179 9.75 13 9.75C13.6465 9.75 14.2665 10.0068 14.7236 10.4639C15.1807 10.921 15.4375 11.541 15.4375 12.1875Z" fill="#64CEBB"/>
</svg>
