<svg width="37" height="41" viewBox="0 0 37 41" fill="none" xmlns="http://www.w3.org/2000/svg">
<path opacity="0.5" d="M0 16.3333C0 8.63421 -2.43386e-07 4.78363 2.39283 2.39283C4.78567 0.00204152 8.63421 0 16.3333 0H20.4167C28.1158 0 31.9664 -2.43386e-07 34.3572 2.39283C36.748 4.78567 36.75 8.63421 36.75 16.3333V24.5C36.75 32.1991 36.75 36.0497 34.3572 38.4405C31.9643 40.8313 28.1158 40.8333 20.4167 40.8333H16.3333C8.63421 40.8333 4.78363 40.8333 2.39283 38.4405C0.00204152 36.0477 0 32.1991 0 24.5V16.3333Z" fill="#F5C645"/>
<path fill-rule="evenodd" clip-rule="evenodd" d="M8.67712 16.3333C8.67712 15.9271 8.83845 15.5377 9.12562 15.2505C9.41278 14.9633 9.80226 14.802 10.2084 14.802H26.5417C26.9478 14.802 27.3373 14.9633 27.6245 15.2505C27.9116 15.5377 28.073 15.9271 28.073 16.3333C28.073 16.7394 27.9116 17.1288 27.6245 17.416C27.3373 17.7032 26.9478 17.8645 26.5417 17.8645H10.2084C9.80226 17.8645 9.41278 17.7032 9.12562 17.416C8.83845 17.1288 8.67712 16.7394 8.67712 16.3333ZM8.67712 24.4999C8.67712 24.0938 8.83845 23.7043 9.12562 23.4172C9.41278 23.13 9.80226 22.9687 10.2084 22.9687H20.4167C20.8228 22.9687 21.2123 23.13 21.4995 23.4172C21.7866 23.7043 21.948 24.0938 21.948 24.4999C21.948 24.906 21.7866 25.2955 21.4995 25.5827C21.2123 25.8698 20.8228 26.0312 20.4167 26.0312H10.2084C9.80226 26.0312 9.41278 25.8698 9.12562 25.5827C8.83845 25.2955 8.67712 24.906 8.67712 24.4999Z" fill="black"/>
</svg>
